<svg id="content" xmlns="http://www.w3.org/2000/svg" viewBox="0 0 1193.48 120"><defs><style>.cls-1{fill:#221e20;}.cls-2{fill:#00204e;}.cls-3{fill:#4891dc;}.cls-4,.cls-5{fill:#ff6e00;}.cls-5{opacity:0.4;}</style></defs><title>Lockup_INV_CI_horizontal_RGB_line_thin</title><rect class="cls-1" x="636.45" width="3" height="120"/><path class="cls-2" d="M123,43.52c2,0,4.05.85,4.05,2.27v68.92c0,1.52-2,2.27-4.05,2.27v1.54h20V117c-2,0-4.06-.79-4.06-2.27V45.79c0-1.51,2-2.27,4.06-2.27V42H123ZM376.53,77.68c0-4.76,5.33-7.3,10.92-7.3,9,0,14.17,1.49,15.88,7.59h1.79L405,70a45,45,0,0,0-16-3.21c-15.41,0-21.71,8-21.71,14.16,0,17.83,30.54,13.63,30.54,26.69,0,3.88-3.08,7.86-11.35,7.86-10.22,0-15.47-3.18-17.87-10l-1.38.23.62,9.51a44.69,44.69,0,0,0,17.1,3.76c16.67,0,24.09-7.75,24.09-15.05,0-17.39-32.5-13.4-32.5-26.35m-102-8.48c3.17,0,5.31,1.86,4.07,4.35h0l-15.27,29.37L248.17,73.19c-.71-2.33,1.34-4,4.16-4V67.62H228.06V69.2c3,0,5.14,1.19,7.35,5L260,119.06l25.44-45.75c2-3.45,4.6-4.11,6.57-4.11V67.62H274.54Zm-56.6,45.51V91.63h0V81.23c0-9.52-10.21-14.87-20.7-14.87-9,0-17.07,5-20.15,7.6V66.8h0c0-.93-.45-1.17-.88-1.17-6.54,2.37-9.46,3.52-16,5.76v1.2c3.49.21,4.57,2.12,4.9,4.61v37.52c0,1.66-2,2.27-4.06,2.27v1.54h20V117c-2,0-4.06-.79-4.06-2.27V78.42h.09v-.18a22,22,0,0,1,14.13-5.56c12.31,0,14.83,6.53,14.83,12.41l0,29.67c0,1.62-2,2.22-4,2.22v1.54h20V117c-2,0-4.07-.55-4.07-2.27M353.52,88.8c0-16-14.41-22.36-26.29-22.36-21.42,0-31.64,14.15-31.83,25.91a25.68,25.68,0,0,0,3.56,13,26.31,26.31,0,0,0,11,10.17,35.33,35.33,0,0,0,16.1,3.6,45,45,0,0,0,14.27-2,39.23,39.23,0,0,0,12.27-7.14l-.08-4a48.74,48.74,0,0,1-11.28,5.81,35.73,35.73,0,0,1-11,1.57,22.3,22.3,0,0,1-15.62-5.91c-4.47-4.14-6.25-10.77-6.42-15.58v-3Zm-28-18.47c7.7,0,15.11,4,15.11,14.47H308.75c1.13-7.45,6.58-14.47,16.79-14.47M528.78,88.8c0-16-14.42-22.36-26.31-22.36-21.41,0-31.63,14.15-31.83,25.91a25.62,25.62,0,0,0,3.56,13,26.33,26.33,0,0,0,11,10.17,35.37,35.37,0,0,0,16.11,3.6,45,45,0,0,0,14.27-2,39.33,39.33,0,0,0,12.27-7.14l-.08-4a48.53,48.53,0,0,1-11.28,5.81,35.75,35.75,0,0,1-11,1.57,22.27,22.27,0,0,1-15.62-5.91c-4.48-4.14-6.25-10.77-6.43-15.58v-3Zm-28-18.47c7.7,0,15.11,4,15.11,14.47H484c1.12-7.45,6.57-14.47,16.78-14.47m-47.33,44.28c-4.3.16-12.65-1.07-12.65-11.1V72.78h19.47V68.3H441.09V58.36H429v10h-7.83l.08,4.45H429v30.45h0s0,.05,0,.07v.32c0,10.24,8.21,15.51,19.32,15.47a21.63,21.63,0,0,0,10.42-2.9,25.57,25.57,0,0,0,3.78-2.66l-.24-1.76c-1.72.93-5.47,2.72-8.83,2.84M571.63,70.28c8.61,0,16.59,4.71,19.64,10.46H594V71.19a49.57,49.57,0,0,0-21.71-5.09c-23.62,0-33.18,15.84-33.18,26.61a24.05,24.05,0,0,0,1,6.71h-.07c.2.6.42,1.19.66,1.78a25.2,25.2,0,0,0,4.51,7.71,26,26,0,0,0,8,6.41,31.89,31.89,0,0,0,12.53,3.52c1.49.15,3,.24,4.64.24a32.46,32.46,0,0,0,12-2.14l.14,0a37,37,0,0,0,11.56-7v-4.15a49.78,49.78,0,0,1-9.16,5.15,32.09,32.09,0,0,1-10.84,1.8c-14.81,0-22.07-10.34-22.07-21.44,0-9.67,6-21,19.65-21"/><path class="cls-3" d="M48.4,42V1.28H44.72v8.79c-17.56.73-32,11.8-35.72,26.44h9.46A29.09,29.09,0,0,1,44.72,15V42H0v3.75H8.11C9.18,63,25,76.89,44.72,77.71v8.75H48.4V45.75H75.57A29,29,0,0,1,53.64,71.89v5.24C70.84,74.32,84,61.47,85,45.75h8.15V42ZM44.72,72.7A29,29,0,0,1,17.57,45.75H44.72Zm30-36.18h9.46C80.81,23.35,68.79,13.09,53.64,10.6v5.25a29.1,29.1,0,0,1,21,20.66"/><path class="cls-4" d="M734.85,61.06a20.28,20.28,0,0,0-5-5.49,22.48,22.48,0,0,0-6.54-3.37,24.25,24.25,0,0,0-7.5-1.16,25.92,25.92,0,0,0-12.28,2.72,24.31,24.31,0,0,0-8.4,7.2,31,31,0,0,0-4.83,10.12,43.53,43.53,0,0,0,0,23.1,30.9,30.9,0,0,0,4.83,10.17,24.3,24.3,0,0,0,8.4,7.2,25.92,25.92,0,0,0,12.28,2.72,21.84,21.84,0,0,0,9.06-1.81,21.42,21.42,0,0,0,6.94-4.93,25.29,25.29,0,0,0,4.73-7.3,30.44,30.44,0,0,0,2.31-9h6.85a38.76,38.76,0,0,1-3.12,12,29.39,29.39,0,0,1-6.24,9.06,26.55,26.55,0,0,1-9,5.74,31.61,31.61,0,0,1-11.53,2,33.91,33.91,0,0,1-14.85-3.07,30.77,30.77,0,0,1-10.62-8.2A34.86,34.86,0,0,1,684,96.85a48.72,48.72,0,0,1,0-28.39,35.43,35.43,0,0,1,6.34-11.93,30.55,30.55,0,0,1,10.62-8.25,36,36,0,0,1,24.86-1.56,29,29,0,0,1,8.86,4.48,26.12,26.12,0,0,1,6.64,7.3,24.56,24.56,0,0,1,3.37,10h-6.84a23,23,0,0,0-3-7.4"/><rect class="cls-4" x="750.51" y="46.72" width="6.34" height="71.87"/><path class="cls-4" d="M770.94,118.59H764.6V66.65h6.34Zm0-61.7H764.6V46.72h6.34Z"/><path class="cls-4" d="M810.4,73.8q-3.53-3.32-9.87-3.32a16,16,0,0,0-8,1.91,17.46,17.46,0,0,0-5.69,5,22.86,22.86,0,0,0-3.42,7.1,29,29,0,0,0,0,16.21,22.84,22.84,0,0,0,3.42,7.1,17.43,17.43,0,0,0,5.69,5,16,16,0,0,0,8,1.91,14,14,0,0,0,5.54-1.11,14.91,14.91,0,0,0,4.63-3.07,16.45,16.45,0,0,0,3.32-4.68,17.33,17.33,0,0,0,1.61-5.94H822q-1.31,9.46-6.95,14.75T800.53,120A24.35,24.35,0,0,1,790,117.83a22.32,22.32,0,0,1-7.7-5.89,25.69,25.69,0,0,1-4.73-8.71,35.81,35.81,0,0,1,0-21.24,25.69,25.69,0,0,1,4.73-8.71,22.9,22.9,0,0,1,7.7-5.94,23.89,23.89,0,0,1,10.52-2.22,22.59,22.59,0,0,1,14.14,4.43Q820.47,74,821.57,83h-6.34a17.48,17.48,0,0,0-4.83-9.16"/><polygon class="cls-4" points="832.64 46.72 832.64 91.81 861.43 66.65 869.89 66.65 847.75 85.88 871.4 118.59 863.45 118.59 842.91 90.3 832.64 98.86 832.64 118.59 826.3 118.59 826.3 46.72 832.64 46.72"/><rect class="cls-4" x="969.52" y="46.72" width="6.84" height="71.87"/><path class="cls-4" d="M991.86,66.65v9h.2A15.21,15.21,0,0,1,998.5,68a18.93,18.93,0,0,1,10.17-2.87,25.61,25.61,0,0,1,9.11,1.41,14.43,14.43,0,0,1,5.89,4,14.82,14.82,0,0,1,3.12,6.29,35.4,35.4,0,0,1,.91,8.36v33.42h-6.34V86.18a30,30,0,0,0-.6-6.19,13.08,13.08,0,0,0-2.11-5,10.25,10.25,0,0,0-4.08-3.32,15,15,0,0,0-6.39-1.21,16.16,16.16,0,0,0-6.79,1.36,14.72,14.72,0,0,0-5,3.73,17.2,17.2,0,0,0-3.22,5.64,22.89,22.89,0,0,0-1.26,7.1v30.3h-6.34V66.65Z"/><polygon class="cls-4" points="1036.35 66.65 1052.66 112.25 1052.86 112.25 1068.96 66.65 1075.51 66.65 1056.08 118.59 1049.34 118.59 1029.3 66.65 1036.35 66.65"/><path class="cls-4" d="M1113.3,82.05a19,19,0,0,0-3.27-5.89A16.23,16.23,0,0,0,1104.9,72a14.7,14.7,0,0,0-6.85-1.56,14.92,14.92,0,0,0-6.95,1.56,16.21,16.21,0,0,0-5.13,4.13,20.52,20.52,0,0,0-3.37,5.94,29,29,0,0,0-1.66,6.9h33.62a23,23,0,0,0-1.26-6.95m-31.41,19.38A19.46,19.46,0,0,0,1085,108a17.53,17.53,0,0,0,5.33,4.83,14.92,14.92,0,0,0,7.75,1.91q6.95,0,10.87-3.62a19.07,19.07,0,0,0,5.44-9.66h6.34q-2,8.86-7.4,13.69T1098.05,120a24.2,24.2,0,0,1-10.62-2.16,19.52,19.52,0,0,1-7.3-5.94,25.82,25.82,0,0,1-4.18-8.76,39.78,39.78,0,0,1-1.36-10.52A37.71,37.71,0,0,1,1076,82.55a27,27,0,0,1,4.18-8.81,21,21,0,0,1,7.3-6.24,22.46,22.46,0,0,1,10.62-2.37,20.54,20.54,0,0,1,17.87,9.11,27.36,27.36,0,0,1,4,9.36,41.14,41.14,0,0,1,1,10.72h-40a28.07,28.07,0,0,0,1,7.1"/><path class="cls-4" d="M1156.84,76.77a10.32,10.32,0,0,0-3-3.57,12.36,12.36,0,0,0-4.28-2.06,19.52,19.52,0,0,0-5.13-.66,20.84,20.84,0,0,0-4.28.45,13.19,13.19,0,0,0-4,1.51,8.53,8.53,0,0,0-2.92,2.77,7.61,7.61,0,0,0-1.11,4.23,5.92,5.92,0,0,0,1.06,3.57,9.33,9.33,0,0,0,2.67,2.47,16.88,16.88,0,0,0,3.52,1.66q1.91.66,3.52,1.06l8.46,1.91a24.33,24.33,0,0,1,5.39,1.46,17.43,17.43,0,0,1,4.73,2.77,13.58,13.58,0,0,1,3.37,4.23,12.72,12.72,0,0,1,1.31,5.94,13,13,0,0,1-1.91,7.2,15.63,15.63,0,0,1-4.88,4.83,20.76,20.76,0,0,1-6.69,2.67,34.74,34.74,0,0,1-7.35.81q-9.16,0-14.85-4.33T1124,101.78h6.34q.4,6.44,4.68,9.71a17,17,0,0,0,10.62,3.27,23.77,23.77,0,0,0,4.78-.51,15.33,15.33,0,0,0,4.58-1.71,11,11,0,0,0,3.47-3.07,7.55,7.55,0,0,0,1.36-4.58,7.31,7.31,0,0,0-1-3.88,8.32,8.32,0,0,0-2.57-2.62,16.27,16.27,0,0,0-3.67-1.76q-2.06-.7-4.18-1.21l-8.15-1.81a46.05,46.05,0,0,1-5.74-1.86,18.29,18.29,0,0,1-4.58-2.62,11,11,0,0,1-3.07-3.82,12.66,12.66,0,0,1-1.11-5.59A12.47,12.47,0,0,1,1127.6,73a13.76,13.76,0,0,1,4.58-4.53,21.4,21.4,0,0,1,6.29-2.52,30.55,30.55,0,0,1,6.9-.8,25.49,25.49,0,0,1,7.3,1,16.79,16.79,0,0,1,5.94,3.12,15.36,15.36,0,0,1,4.08,5.24,18.8,18.8,0,0,1,1.71,7.35H1158a12,12,0,0,0-1.21-5.08"/><path class="cls-4" d="M1193.48,66.65V72h-10.57v35a11.34,11.34,0,0,0,.86,4.88q.85,1.77,4.28,2a49,49,0,0,0,5.43-.3v5.34q-1.41,0-2.82.1t-2.82.1q-6.34,0-8.86-2.47t-2.42-9.11V72h-9.06V66.65h9.06V51h6.34v15.6Z"/><path class="cls-5" d="M908.35,49.38q3.64-2.32,7.46-5.06a52.75,52.75,0,0,0,7.05-6.05,29.54,29.54,0,0,0,5.31-7.46,20.12,20.12,0,0,0,2.07-9.12,11.49,11.49,0,0,0-1.66-6.05,17.27,17.27,0,0,0-4.23-4.73,19.29,19.29,0,0,0-5.89-3.07,22,22,0,0,0-13.6,0A19.3,19.3,0,0,0,899,10.9a17.18,17.18,0,0,0-4.23,4.73,11.45,11.45,0,0,0-1.66,6.05,19.55,19.55,0,0,0,1.66,8,44.78,44.78,0,0,0,4,7.13,71.23,71.23,0,0,0,5,6.47,61.48,61.48,0,0,1,4.65,6.05m-30,40.14A21.78,21.78,0,0,0,880.82,100a24.14,24.14,0,0,0,6.55,7.79,29.69,29.69,0,0,0,9.2,4.81,34.33,34.33,0,0,0,10.62,1.66,27.72,27.72,0,0,0,13-2.9,40.22,40.22,0,0,0,9.21-6.38,32.05,32.05,0,0,0,5.47-6.55,19.39,19.39,0,0,0,1.83-3.4L906.19,57q-4.64,3-9.54,6.05a58.34,58.34,0,0,0-9,6.88A35.49,35.49,0,0,0,881,78.49a22.15,22.15,0,0,0-2.65,11m-6.3,0a26.85,26.85,0,0,1,2.9-12.77A38.59,38.59,0,0,1,882.31,67a63.46,63.46,0,0,1,10-7.79q5.47-3.48,10.62-6.8-2.83-3.48-5.64-6.88a64.36,64.36,0,0,1-5.14-7.13,42.16,42.16,0,0,1-3.81-7.79,25.5,25.5,0,0,1-1.49-8.87,16.42,16.42,0,0,1,2.16-8.37,21.44,21.44,0,0,1,5.64-6.38,27.31,27.31,0,0,1,8-4.15,28.71,28.71,0,0,1,9.12-1.49A32.54,32.54,0,0,1,921,2.61a25.54,25.54,0,0,1,8,3.9,19.37,19.37,0,0,1,5.56,6.39,18.12,18.12,0,0,1,2.07,8.79,25,25,0,0,1-2.24,10.95A33.57,33.57,0,0,1,928.58,41a49.54,49.54,0,0,1-7.88,6.8Q916.31,50.88,912,54l28.2,34.67a62.91,62.91,0,0,0,2.9-9.62A47.66,47.66,0,0,0,944.17,69h6.3a68.48,68.48,0,0,1-1.91,12.85A78.78,78.78,0,0,1,944.5,94l19.24,23.72h-8.46l-14.43-17.58a41.23,41.23,0,0,1-14.1,14.34,37,37,0,0,1-19.57,5.23,48.26,48.26,0,0,1-13.85-1.91,32.91,32.91,0,0,1-11.11-5.64,26.3,26.3,0,0,1-7.46-9.45A30.21,30.21,0,0,1,872,89.52"/></svg>